# File created by Blade
# Date/Time:  Wed Apr 08 14:47:20 2015
# Frame Rate: 120.000 fps
#------------------------------------------------------
:FULLY-SPECIFIED
:DEGREES
1688
root 12.994161 32.234012 -9.359167 -153.808053 46.638995 -172.051236
Spine -11.139892 -17.375841 9.383431
Head -34.340604 -57.339519 41.180270
LeftShoulder -16.572259 46.628552 8.634549
LeftArm 54.559804 17.061593 -71.106659
LeftForeArm -7.787726 -0.000000 121.424723
LeftHand 10.385661 -0.000000 5.843319
LeftHandThumb1 -26.253704 0.000000 33.147579
RightShoulder -7.234550 -7.151554 -18.272676
RightArm 22.948409 -36.296914 69.411689
RightForeArm 8.380350 -0.000000 112.186238
RightHand 8.984412 -0.000000 4.293820
RightHandThumb1 -24.326973 -0.000000 -32.862282
LeftUpLeg -16.888451 -8.917818 8.735730
LeftLeg 48.676894 -0.000000 -0.000000
LeftFoot 7.420508 -18.346601 -32.174849
LeftToeBase 2.712816 -0.000000 -0.000000
RightUpLeg -28.687113 5.883283 6.505776
RightLeg 21.598610 -0.000000 -0.000000
RightFoot -12.311677 -11.884264 9.888947
RightToeBase -3.669159 -0.000000 0.000000
1689
root 13.003254 32.229224 -9.446658 -153.646788 47.603818 -171.759058
Spine -10.969009 -17.312921 9.357166
Head -34.285793 -57.649637 41.249856
LeftShoulder -16.592147 46.628757 8.556321
LeftArm 54.753338 17.264349 -71.119285
LeftForeArm -7.782428 -0.000000 121.432461
LeftHand 10.556098 -0.000000 6.019672
LeftHandThumb1 -26.253704 0.000000 33.147579
RightShoulder -7.257824 -7.119320 -18.359167
RightArm 22.754484 -35.935339 69.395347
RightForeArm 8.603996 -0.000000 112.337733
RightHand 8.998911 -0.000000 3.987210
RightHandThumb1 -24.326973 -0.000000 -32.862282
LeftUpLeg -17.905804 -8.780629 8.929163
LeftLeg 50.014969 -0.000000 -0.000000
LeftFoot 6.598811 -18.251422 -32.496954
LeftToeBase 2.133618 -0.000000 -0.000000
RightUpLeg -28.414738 6.327130 6.331848
RightLeg 21.448977 -0.000000 -0.000000
RightFoot -12.218016 -11.504406 9.780492
RightToeBase -3.867163 -0.000000 0.000000
1690
root 12.998550 32.221491 -9.544161 -153.608140 48.642105 -171.642892
Spine -10.794683 -17.253769 9.200364
Head -34.253905 -57.921334 41.323771
LeftShoulder -16.558035 46.587654 8.525982
LeftArm 54.830947 17.479059 -71.202809
LeftForeArm -7.826370 -0.000000 121.472816
LeftHand 10.594601 -0.000000 6.351246
LeftHandThumb1 -26.253704 0.000000 33.147579
RightShoulder -7.249385 -7.063835 -18.502132
RightArm 22.413068 -35.619790 69.590156
RightForeArm 8.626066 -0.000000 112.507643
RightHand 9.025452 0.000000 3.510857
RightHandThumb1 -24.326973 -0.000000 -32.862282
LeftUpLeg -18.913398 -8.761793 8.994098
LeftLeg 51.236966 -0.000000 -0.000000
LeftFoot 5.506227 -18.164764 -32.690062
LeftToeBase 0.990049 -0.000000 -0.000000
RightUpLeg -28.421411 6.431510 6.147575
RightLeg 21.858015 -0.000000 -0.000000
RightFoot -12.185788 -11.037487 9.412142
RightToeBase -4.052675 -0.000000 0.000000
1691
root 12.993951 32.216740 -9.639868 -153.564873 49.700981 -171.527708
Spine -10.614613 -17.173095 9.007083
Head -34.339871 -58.194075 41.536312
LeftShoulder -16.514738 46.577758 8.501497
LeftArm 54.886334 17.632394 -71.258214
LeftForeArm -7.880425 0.000000 121.510423
LeftHand 10.613370 -0.000000 6.384044
LeftHandThumb1 -26.253704 0.000000 33.147579
RightShoulder -7.266523 -7.066113 -18.573456
RightArm 22.320656 -35.246541 69.634682
RightForeArm 8.985157 -0.000000 112.639009
RightHand 9.073537 -0.000000 3.514326
RightHandThumb1 -24.326973 -0.000000 -32.862282
LeftUpLeg -19.893177 -8.811425 9.108358
LeftLeg 52.277954 -0.000000 -0.000000
LeftFoot 4.476577 -18.193752 -33.075567
LeftToeBase -0.572560 -0.000000 0.000000
RightUpLeg -28.307621 6.684541 5.877071
RightLeg 21.989206 -0.000000 -0.000000
RightFoot -12.151794 -10.564998 9.256517
RightToeBase -4.088721 -0.000000 0.000000
1692
root 12.992721 32.213265 -9.734754 -153.469998 50.773497 -171.338559
Spine -10.429115 -17.012170 8.826974
Head -34.518864 -58.454880 41.847179
LeftShoulder -16.428116 46.616226 8.493748
LeftArm 54.967803 17.780701 -71.283419
LeftForeArm -7.783035 0.000000 121.535517
LeftHand 10.598948 -0.000000 6.266026
LeftHandThumb1 -26.253704 0.000000 33.147579
RightShoulder -7.333096 -7.082775 -18.631154
RightArm 22.281099 -34.883732 69.668025
RightForeArm 8.948739 -0.000000 112.758288
RightHand 9.006893 -0.000000 3.728970
RightHandThumb1 -24.326973 -0.000000 -32.862282
LeftUpLeg -20.832641 -8.868815 9.300939
LeftLeg 53.169933 -0.000000 -0.000000
LeftFoot 3.201760 -18.339582 -32.796169
LeftToeBase -1.213097 -0.000000 0.000000
RightUpLeg -28.162183 7.010629 5.630107
RightLeg 22.055636 -0.000000 -0.000000
RightFoot -12.078521 -10.108606 9.097360
RightToeBase -4.188800 -0.000000 0.000000
1693
root 12.983595 32.211634 -9.834202 -153.457490 51.894406 -171.247096
Spine -10.199386 -16.892597 8.563822
Head -34.798100 -58.663936 42.263940
LeftShoulder -16.470089 46.682439 8.384693
LeftArm 55.074456 17.911932 -71.270978
LeftForeArm -7.893034 -0.000000 121.554890
LeftHand 10.648035 -0.000000 6.104700
LeftHandThumb1 -26.253704 0.000000 33.147579
RightShoulder -7.376397 -7.068096 -18.678199
RightArm 22.258032 -34.616435 69.731560
RightForeArm 8.978362 -0.000000 112.885932
RightHand 8.985671 -0.000000 3.655640
RightHandThumb1 -24.326973 -0.000000 -32.862282
LeftUpLeg -21.727285 -8.963032 9.441613
LeftLeg 53.877313 -0.000000 -0.000000
LeftFoot 1.944030 -18.541434 -32.159813
LeftToeBase -4.053885 -0.000000 0.000000
RightUpLeg -28.055816 7.283824 5.292104
RightLeg 22.193517 -0.000000 -0.000000
RightFoot -11.973256 -9.623305 8.876385
RightToeBase -4.594021 -0.000000 0.000000
1694
root 12.973361 32.209957 -9.935980 -153.398688 53.042338 -171.091234
Spine -9.974989 -16.756445 8.342586
Head -35.104149 -58.916538 42.660180
LeftShoulder -16.488803 46.738601 8.290595
LeftArm 55.096038 18.036300 -71.329805
LeftForeArm -7.932071 0.000000 121.592615
LeftHand 10.692563 -0.000000 6.104540
LeftHandThumb1 -26.253704 0.000000 33.147579
RightShoulder -7.380553 -7.073795 -18.762313
RightArm 22.269974 -34.427493 69.809505
RightForeArm 8.939787 0.000000 113.015354
RightHand 9.024392 0.000000 3.429749
RightHandThumb1 -24.326973 -0.000000 -32.862282
LeftUpLeg -22.584142 -9.103292 9.642373
LeftLeg 54.440902 -0.000000 -0.000000
LeftFoot 0.593854 -18.863345 -31.262869
LeftToeBase -5.223124 -0.000000 0.000000
RightUpLeg -27.984003 7.411043 5.057584
RightLeg 22.398666 -0.000000 -0.000000
RightFoot -11.862310 -9.050615 8.768275
RightToeBase -4.879125 -0.000000 0.000000
1695
root 12.961963 32.211584 -10.034649 -153.232086 54.206579 -170.828366
Spine -9.767004 -16.606216 8.172388
Head -35.391999 -59.111950 43.069255
LeftShoulder -16.511449 46.794705 8.193523
LeftArm 55.064622 18.151432 -71.357851
LeftForeArm -8.027926 -0.000000 121.648047
LeftHand 10.714459 -0.000000 6.223429
LeftHandThumb1 -26.253704 0.000000 33.147579
RightShoulder -7.358535 -7.027554 -18.860188
RightArm 22.244263 -34.290001 69.963996
RightForeArm 8.908458 -0.000000 113.132935
RightHand 9.058571 -0.000000 3.382559
RightHandThumb1 -24.326973 -0.000000 -32.862282
LeftUpLeg -23.412036 -9.223398 9.958626
LeftLeg 54.811782 -0.000000 -0.000000
LeftFoot -0.895871 -19.182459 -30.284442
LeftToeBase -5.800346 -0.000000 0.000000
RightUpLeg -27.790923 7.990110 4.706387
RightLeg 22.264505 -0.000000 -0.000000
RightFoot -11.749058 -8.761022 8.764876
RightToeBase -5.025452 -0.000000 0.000000
1696
root 12.940754 32.219466 -10.144690 -153.209343 55.490229 -170.771511
Spine -9.570908 -16.427559 7.841134
Head -35.737722 -59.298319 43.523795
LeftShoulder -16.586394 46.863935 8.040627
LeftArm 55.034147 18.228731 -71.360842
LeftForeArm -7.973474 -0.000000 121.688724
LeftHand 10.716031 -0.000000 6.291951
LeftHandThumb1 -26.253704 0.000000 33.147579
RightShoulder -7.324278 -7.048448 -18.903999
RightArm 22.325816 -34.189285 70.061674
RightForeArm 8.860968 0.000000 113.255564
RightHand 9.088085 -0.000000 3.269875
RightHandThumb1 -24.326973 -0.000000 -32.862282
LeftUpLeg -24.065168 -9.622467 10.168748
LeftLeg 54.744341 -0.000000 -0.000000
LeftFoot -2.347637 -19.466763 -30.403309
LeftToeBase -5.866322 -0.000000 0.000000
RightUpLeg -27.710689 8.340646 4.244964
RightLeg 22.296397 -0.000000 -0.000000
RightFoot -11.570835 -8.212101 8.649017
RightToeBase -5.258262 -0.000000 0.000000
1697
root 12.909023 32.227666 -10.261035 -153.168175 56.844249 -170.726969
Spine -9.401220 -16.173103 7.496081
Head -36.096348 -59.497423 43.970205
LeftShoulder -16.652813 46.937613 7.896937
LeftArm 54.996845 18.312756 -71.410584
LeftForeArm -7.899804 0.000000 121.702281
LeftHand 10.730811 -0.000000 6.302073
LeftHandThumb1 -26.253704 0.000000 33.147579
RightShoulder -7.296072 -6.970345 -19.006580
RightArm 22.298308 -34.160365 70.288777
RightForeArm 8.808407 -0.000000 113.359420
RightHand 9.079615 -0.000000 3.191693
RightHandThumb1 -24.326973 -0.000000 -32.862282
LeftUpLeg -24.790488 -9.899908 10.346893
LeftLeg 54.650329 -0.000000 -0.000000
LeftFoot -3.627560 -19.570835 -30.304198
LeftToeBase -7.195125 -0.000000 0.000000
RightUpLeg -27.740957 8.604630 3.763832
RightLeg 22.454880 -0.000000 -0.000000
RightFoot -11.391718 -7.544652 8.555417
RightToeBase -5.538406 -0.000000 0.000000
